<svg width="104" height="26" viewBox="0 0 104 26" fill="none" xmlns="http://www.w3.org/2000/svg">
  <path d="M44.934 4.64258V7.83976H40.3708V21.5674H37.0396V7.83976H32.5V4.64258H44.934Z" fill="white"/>
  <path d="M55.1402 19.8216C54.5485 20.422 53.8408 20.8954 53.0603 21.2131C52.2799 21.5308 51.4429 21.6861 50.6006 21.6694C49.761 21.6783 48.928 21.5193 48.1506 21.2018C47.3731 20.8843 46.6668 20.4145 46.0731 19.8202C45.4794 19.2258 45.0101 18.5188 44.6929 17.7405C44.3757 16.9623 44.2169 16.1284 44.2258 15.2879C44.2169 14.4475 44.3757 13.6138 44.693 12.8357C45.0102 12.0575 45.4795 11.3506 46.0732 10.7564C46.667 10.1623 47.3733 9.69274 48.1507 9.37544C48.9282 9.05813 49.7611 8.89943 50.6006 8.90863C51.4413 8.89889 52.2756 9.05706 53.0546 9.37388C53.8336 9.6907 54.5417 10.1598 55.1374 10.7538C55.7332 11.3478 56.2047 12.0547 56.5243 12.8332C56.8439 13.6117 57.0053 14.4463 56.9989 15.2879C57.0161 16.1308 56.86 16.9682 56.5402 17.7481C56.2204 18.528 55.7439 19.2338 55.1402 19.8216ZM48.2718 17.6729C48.5733 17.9838 48.9359 18.2289 49.3367 18.3927C49.7375 18.5565 50.1678 18.6355 50.6006 18.6248C51.0346 18.6361 51.4663 18.5582 51.869 18.396C52.2718 18.2338 52.6371 17.9906 52.9423 17.6815C53.254 17.3679 53.4983 16.9938 53.6604 16.5822C53.8224 16.1706 53.8987 15.7301 53.8845 15.2879C53.8986 14.8461 53.8223 14.406 53.6603 13.9947C53.4983 13.5835 53.2539 13.2098 52.9423 12.8965C52.6371 12.5874 52.2718 12.3443 51.869 12.1821C51.4663 12.0198 51.0346 11.9419 50.6006 11.9533C50.1681 11.9411 49.7377 12.0186 49.3366 12.181C48.9355 12.3433 48.5722 12.5869 48.2696 12.8965C47.961 13.2114 47.7195 13.5857 47.5598 13.9968C47.4 14.4078 47.3253 14.8471 47.3402 15.2879C47.3253 15.7291 47.3999 16.1687 47.5597 16.5802C47.7194 16.9916 47.961 17.3663 48.2696 17.6815L48.2718 17.6729Z" fill="white"/>
  <path d="M69.6706 19.8216C68.4585 21.0064 66.8316 21.6697 65.1374 21.6697C63.4433 21.6697 61.8164 21.0064 60.6043 19.8216C60.0032 19.2323 59.5291 18.5261 59.2113 17.7463C58.8935 16.9666 58.7386 16.1299 58.7562 15.2879C58.7473 14.4475 58.9062 13.6138 59.2234 12.8357C59.5406 12.0575 60.0099 11.3506 60.6036 10.7564C61.1974 10.1623 61.9037 9.69274 62.6811 9.37544C63.4586 9.05813 64.2915 8.89943 65.131 8.90863C65.9718 8.89889 66.806 9.05706 67.585 9.37388C68.364 9.6907 69.0721 10.1598 69.6679 10.7538C70.2636 11.3478 70.7351 12.0547 71.0547 12.8332C71.3743 13.6117 71.5357 14.4463 71.5294 15.2879C71.5465 16.1308 71.3904 16.9682 71.0706 17.7481C70.7509 18.528 70.2743 19.2338 69.6706 19.8216ZM62.8022 17.6729C63.1048 17.9825 63.468 18.2261 63.8692 18.3885C64.2703 18.5508 64.7006 18.6283 65.1331 18.6162C65.5671 18.6275 65.9988 18.5496 66.4016 18.3874C66.8044 18.2252 67.1696 17.982 67.4748 17.6729C67.7865 17.3593 68.0309 16.9852 68.1929 16.5736C68.355 16.162 68.4313 15.7215 68.4171 15.2793C68.4312 14.8375 68.3549 14.3974 68.1929 13.9862C68.0308 13.5749 67.7865 13.2012 67.4748 12.8879C67.1696 12.5788 66.8044 12.3357 66.4016 12.1735C65.9988 12.0112 65.5671 11.9334 65.1331 11.9447C64.7006 11.9325 64.2703 12.01 63.8692 12.1724C63.468 12.3347 63.1048 12.5783 62.8022 12.8879C62.4936 13.2028 62.2521 13.5771 62.0923 13.9882C61.9326 14.3992 61.8579 14.8385 61.8728 15.2793C61.8564 15.7218 61.9301 16.1629 62.0895 16.5759C62.249 16.9889 62.4907 17.3651 62.8 17.6815L62.8022 17.6729Z" fill="white"/>
  <path d="M81.3312 9.15473C82.1171 9.14692 82.8955 9.30803 83.6138 9.62718C84.3322 9.94633 84.9738 10.4161 85.4952 11.0047C86.641 12.2301 87.258 13.8583 87.2123 15.5362C87.257 17.2139 86.6402 18.8418 85.4952 20.0677C84.9738 20.6563 84.3322 21.1261 83.6138 21.4452C82.8955 21.7644 82.1171 21.9255 81.3312 21.9177C79.6413 21.9177 78.3377 21.3296 77.4205 20.1536V21.5782H74.304V4.64258H77.4205V10.908C78.3377 9.73916 79.6413 9.15473 81.3312 9.15473ZM78.3606 17.9792C78.6722 18.2943 79.0454 18.5417 79.4568 18.7058C79.8682 18.87 80.309 18.9474 80.7517 18.9332C81.1959 18.9467 81.6381 18.869 82.0512 18.7049C82.4642 18.5408 82.8394 18.2939 83.1535 17.9792C83.4713 17.6569 83.7199 17.273 83.8842 16.8511C84.0484 16.4291 84.1248 15.978 84.1086 15.5254C84.1245 15.0729 84.048 14.6219 83.8838 14.2C83.7196 13.7781 83.4711 13.3941 83.1535 13.0717C82.8394 12.757 82.4642 12.5101 82.0512 12.346C81.6381 12.1819 81.1959 12.1042 80.7517 12.1177C80.309 12.1035 79.8682 12.1809 79.4568 12.3451C79.0454 12.5092 78.6722 12.7566 78.3606 13.0717C78.0468 13.3961 77.8017 13.7808 77.6401 14.2024C77.4786 14.6241 77.4039 15.0741 77.4205 15.5254C77.4037 15.9768 77.4784 16.4268 77.64 16.8485C77.8015 17.2702 78.0467 17.6548 78.3606 17.9792Z" fill="white"/>
  <path d="M91.7018 8.22235C91.469 8.22348 91.2384 8.1772 91.0241 8.08633C90.8097 7.99547 90.616 7.86191 90.4548 7.69379C90.2855 7.53289 90.151 7.33884 90.0598 7.12371C89.9686 6.90858 89.9226 6.67697 89.9246 6.44328C89.9235 6.20813 89.9699 5.97519 90.061 5.75845C90.1521 5.54171 90.2861 5.34564 90.4548 5.18202C90.6142 5.01083 90.8073 4.87453 91.0219 4.78171C91.2365 4.68889 91.468 4.64157 91.7018 4.64271C91.9394 4.63973 92.175 4.68612 92.3937 4.77895C92.6124 4.87178 92.8095 5.00903 92.9725 5.18202C93.14 5.34618 93.2728 5.5425 93.3628 5.75921C93.4528 5.97593 93.4981 6.20859 93.4962 6.44328C93.4982 6.67697 93.4522 6.90858 93.361 7.12371C93.2698 7.33884 93.1354 7.53289 92.9661 7.69379C92.8023 7.86332 92.6057 7.99763 92.3884 8.08851C92.171 8.17939 91.9374 8.22494 91.7018 8.22235ZM90.1564 21.5676V9.4836H93.2816V21.5676H90.1564Z" fill="white"/>
  <path d="M103.991 12.4808H101.263V17.5065C101.248 17.6732 101.268 17.841 101.322 17.9994C101.376 18.1577 101.463 18.3031 101.576 18.4261C101.836 18.6376 102.16 18.753 102.495 18.7527C102.995 18.776 103.497 18.7717 103.997 18.7398V21.5674C101.851 21.8109 100.342 21.6097 99.4704 20.9637C98.599 20.3176 98.1604 19.1652 98.1547 17.5065V12.4808H96.0533V9.48347H98.1547V4.65547L101.263 4.64258V9.48347H103.991V12.4808Z" fill="white"/>
  <path d="M13 26C20.1797 26 26 20.1797 26 13C26 5.8203 20.1797 0 13 0C5.8203 0 0 5.8203 0 13C0 20.1797 5.8203 26 13 26Z" fill="white"/>
  <path d="M17.6464 8.30617C17.4935 8.30218 17.3406 8.31023 17.189 8.33024C16.9019 7.87544 16.5443 7.46914 16.1297 7.12654C15.9911 7.01439 15.8464 6.90991 15.6964 6.81358C15.7927 6.66913 16.3705 5.82654 16.8038 5.5858C16.9411 5.51876 17.0461 5.39993 17.0958 5.25546C17.1454 5.11099 17.1357 4.9527 17.0686 4.81543C17.0354 4.74746 16.9892 4.68669 16.9325 4.6366C16.8758 4.5865 16.8098 4.54806 16.7383 4.52347C16.5938 4.47381 16.4355 4.48357 16.2982 4.55061C15.5519 4.9358 14.7094 6.16358 14.7094 6.16358C14.6908 6.20674 14.6665 6.24722 14.6371 6.28395C14.0969 6.08883 13.5263 5.99103 12.9519 5.99506C12.48 5.99676 12.0104 6.06153 11.5557 6.18765C11.5557 6.16358 10.7371 4.95987 9.94269 4.59876C9.80541 4.53172 9.64713 4.52196 9.50266 4.57162C9.35819 4.62128 9.23936 4.7263 9.17232 4.86358C9.10528 5.00085 9.09551 5.15914 9.14518 5.30361C9.19484 5.44808 9.29986 5.56691 9.43713 5.63395C9.79824 5.80247 10.2316 6.35617 10.4482 6.66913C10.2316 6.81358 10.0149 6.95802 9.79824 7.12654C9.37003 7.46188 9.00345 7.8692 8.71491 8.33024C8.61861 8.33024 8.49824 8.30617 8.37787 8.30617H8.32972C7.72657 8.30682 7.1298 8.42972 6.57546 8.66744C6.02112 8.90515 5.52071 9.25276 5.10446 9.68926C4.68821 10.1258 4.36475 10.6421 4.15361 11.2071C3.94247 11.7721 3.84804 12.374 3.87602 12.9765C3.90443 13.5918 4.0607 14.1944 4.33488 14.746C4.60906 15.2975 4.99513 15.7859 5.46849 16.18C5.94185 16.5741 6.49211 16.8652 7.08421 17.0349C7.67631 17.2046 8.29727 17.249 8.9075 17.1654C9.46732 18.4082 10.8173 19.948 11.3334 20.4045C11.5517 20.6427 11.512 20.5831 11.77 20.861C12.1202 21.2381 12.1868 21.2579 13.0001 22.558C13.4968 21.7145 13.8342 21.3572 14.2519 20.8969C14.3964 20.7043 14.5716 20.5489 14.6679 20.4045C15.7198 19.293 16.5297 18.4023 17.0927 17.1414C17.0927 17.1173 17.0927 17.1173 17.1168 17.0932C17.3 17.1222 17.485 17.1383 17.6705 17.1414C18.8475 17.134 19.9749 16.6664 20.8117 15.8387C21.6484 15.0109 22.1281 13.8886 22.1482 12.7117C22.1134 11.5377 21.625 10.4229 20.7855 9.60135C19.946 8.77985 18.8209 8.31562 17.6464 8.30617ZM10.9428 8.20142C11.5962 7.67112 12.1345 7.46146 12.976 7.4623C13.8169 7.46552 14.3538 7.67472 15.0093 8.20142C15.2171 8.36113 15.3636 8.50757 15.5233 8.71543C14.2714 9.29321 13.6019 10.3525 13.0001 11.1951C12.3742 10.3525 11.7047 9.26913 10.4288 8.69136C10.5973 8.52284 10.7261 8.39402 10.9428 8.20142ZM13.9533 18.9159C13.9533 18.9159 13.6558 19.1407 13.4571 19.2731C13.4525 19.2762 13.4478 19.2793 13.4431 19.2824C13.1413 19.4817 12.7494 19.4681 12.4449 19.2731L11.9884 18.9159C11.3022 18.2776 10.7782 17.5511 10.3663 16.7093C11.1065 16.3423 11.6099 15.9545 12.1575 15.3358L12.5186 14.9747L11.5316 13.6265L10.9779 14.2043C10.0871 15.1432 9.19639 15.6247 8.3538 15.6247C7.61316 15.6247 6.90285 15.3305 6.37914 14.8068C5.85542 14.283 5.56121 13.5727 5.56121 12.8321C5.56121 12.0915 5.85542 11.3811 6.37914 10.8574C6.90285 10.3337 7.61316 10.0395 8.3538 10.0395C8.99791 10.0598 9.62006 10.2784 10.1353 10.6654C10.9297 11.2918 11.5924 12.069 12.0853 12.9525L12.2297 13.1932C12.3019 13.2895 13.4829 15.65 15.6255 16.6852C15.2055 17.5354 14.6475 18.2699 13.9533 18.9159ZM17.5982 15.5765C17.1888 15.5664 16.7864 15.4679 16.4186 15.2877C15.8581 14.9714 15.3538 14.5647 14.926 14.084C14.5579 13.6731 14.2276 13.23 13.939 12.7599C14.4927 11.8691 15.889 9.96728 17.6223 9.99136C17.989 9.99294 18.3519 10.0667 18.6901 10.2085C19.0283 10.3503 19.3353 10.5574 19.5935 10.8178C19.8517 11.0782 20.056 11.387 20.1949 11.7264C20.3338 12.0658 20.4045 12.4293 20.4029 12.796C20.4013 13.1627 20.3275 13.5255 20.1857 13.8637C20.0439 14.202 19.8369 14.5089 19.5764 14.7671C19.316 15.0253 19.0073 15.2297 18.6678 15.3686C18.3284 15.5075 17.965 15.5781 17.5982 15.5765Z" fill="#0048FF"/>
  <path d="M13 26C20.1797 26 26 20.1797 26 13C26 5.8203 20.1797 0 13 0C5.8203 0 0 5.8203 0 13C0 20.1797 5.8203 26 13 26Z" fill="#0048FF"/>
  <path d="M17.6464 8.30617C17.4935 8.30218 17.3406 8.31023 17.189 8.33024C16.9019 7.87544 16.5443 7.46914 16.1297 7.12654C15.9911 7.01439 15.8464 6.90991 15.6964 6.81358C15.7927 6.66913 16.3705 5.82654 16.8038 5.5858C16.9411 5.51876 17.0461 5.39993 17.0958 5.25546C17.1454 5.11099 17.1357 4.9527 17.0686 4.81543C17.0354 4.74746 16.9892 4.68669 16.9325 4.6366C16.8758 4.5865 16.8098 4.54806 16.7383 4.52347C16.5938 4.47381 16.4355 4.48357 16.2982 4.55061C15.5519 4.9358 14.7094 6.16358 14.7094 6.16358C14.6908 6.20674 14.6665 6.24722 14.6371 6.28395C14.0969 6.08883 13.5263 5.99103 12.9519 5.99506C12.48 5.99676 12.0104 6.06153 11.5557 6.18765C11.5557 6.16358 10.7371 4.95987 9.94269 4.59876C9.80541 4.53172 9.64713 4.52196 9.50266 4.57162C9.35819 4.62128 9.23936 4.7263 9.17232 4.86358C9.10528 5.00085 9.09551 5.15914 9.14518 5.30361C9.19484 5.44808 9.29986 5.56691 9.43713 5.63395C9.79824 5.80247 10.2316 6.35617 10.4482 6.66913C10.2316 6.81358 10.0149 6.95802 9.79824 7.12654C9.37003 7.46188 9.00345 7.8692 8.71491 8.33024C8.61861 8.33024 8.49824 8.30617 8.37787 8.30617H8.32972C7.72657 8.30682 7.1298 8.42972 6.57546 8.66744C6.02112 8.90515 5.52071 9.25276 5.10446 9.68926C4.68821 10.1258 4.36475 10.6421 4.15361 11.2071C3.94247 11.7721 3.84804 12.374 3.87602 12.9765C3.90443 13.5918 4.0607 14.1944 4.33488 14.746C4.60906 15.2975 4.99513 15.7859 5.46849 16.18C5.94185 16.5741 6.49211 16.8652 7.08421 17.0349C7.67631 17.2046 8.29727 17.249 8.9075 17.1654C9.46732 18.4082 10.8173 19.948 11.3334 20.4045C11.5517 20.6427 11.512 20.5831 11.77 20.861C12.1202 21.2381 12.1868 21.2579 13.0001 22.558C13.4968 21.7145 13.8342 21.3572 14.2519 20.8969C14.3964 20.7043 14.5716 20.5489 14.6679 20.4045C15.7198 19.293 16.5297 18.4023 17.0927 17.1414C17.0927 17.1173 17.0927 17.1173 17.1168 17.0932C17.3 17.1222 17.485 17.1383 17.6705 17.1414C18.8475 17.134 19.9749 16.6664 20.8117 15.8387C21.6484 15.0109 22.1281 13.8886 22.1482 12.7117C22.1134 11.5377 21.625 10.4229 20.7855 9.60135C19.946 8.77985 18.8209 8.31562 17.6464 8.30617ZM10.9428 8.20142C11.5962 7.67112 12.1345 7.46146 12.976 7.4623C13.8169 7.46552 14.3538 7.67472 15.0093 8.20142C15.2171 8.36113 15.3636 8.50757 15.5233 8.71543C14.2714 9.29321 13.6019 10.3525 13.0001 11.1951C12.3742 10.3525 11.7047 9.26913 10.4288 8.69136C10.5973 8.52284 10.7261 8.39402 10.9428 8.20142ZM13.9533 18.9159C13.9533 18.9159 13.6558 19.1407 13.4571 19.2731C13.4525 19.2762 13.4478 19.2793 13.4431 19.2824C13.1413 19.4817 12.7494 19.4681 12.4449 19.2731L11.9884 18.9159C11.3022 18.2776 10.7782 17.5511 10.3663 16.7093C11.1065 16.3423 11.6099 15.9545 12.1575 15.3358L12.5186 14.9747L11.5316 13.6265L10.9779 14.2043C10.0871 15.1432 9.19639 15.6247 8.3538 15.6247C7.61316 15.6247 6.90285 15.3305 6.37914 14.8068C5.85542 14.283 5.56121 13.5727 5.56121 12.8321C5.56121 12.0915 5.85542 11.3811 6.37914 10.8574C6.90285 10.3337 7.61316 10.0395 8.3538 10.0395C8.99791 10.0598 9.62006 10.2784 10.1353 10.6654C10.9297 11.2918 11.5924 12.069 12.0853 12.9525L12.2297 13.1932C12.3019 13.2895 13.4829 15.65 15.6255 16.6852C15.2055 17.5354 14.6475 18.2699 13.9533 18.9159ZM17.5982 15.5765C17.1888 15.5664 16.7864 15.4679 16.4186 15.2877C15.8581 14.9714 15.3538 14.5647 14.926 14.084C14.5579 13.6731 14.2276 13.23 13.939 12.7599C14.4927 11.8691 15.889 9.96728 17.6223 9.99136C17.989 9.99294 18.3519 10.0667 18.6901 10.2085C19.0283 10.3503 19.3353 10.5574 19.5935 10.8178C19.8517 11.0782 20.056 11.387 20.1949 11.7264C20.3338 12.0658 20.4045 12.4293 20.4029 12.796C20.4013 13.1627 20.3275 13.5255 20.1857 13.8637C20.0439 14.202 19.8369 14.5089 19.5764 14.7671C19.316 15.0253 19.0073 15.2297 18.6678 15.3686C18.3284 15.5075 17.965 15.5781 17.5982 15.5765Z" fill="white"/>
  <path d="M13 26C20.1797 26 26 20.1797 26 13C26 5.8203 20.1797 0 13 0C5.8203 0 0 5.8203 0 13C0 20.1797 5.8203 26 13 26Z" fill="#0048FF"/>
  <mask id="mask0_769_11113" style="mask-type:alpha" maskUnits="userSpaceOnUse" x="3" y="3" width="20" height="21">
    <rect x="3.25" y="3.65625" width="19.5" height="19.5" fill="#D9D9D9"/>
  </mask>
  <g mask="url(#mask0_769_11113)">
    <path fillRule="evenodd" clipRule="evenodd" d="M10.7653 4.64591C10.5833 4.31222 10.1652 4.18926 9.83151 4.37128C9.49782 4.55329 9.37487 4.97135 9.55688 5.30504L10.2362 6.55053C10.0873 6.65188 9.86292 6.80713 9.72482 6.91446C9.2881 7.2562 8.91425 7.67128 8.61999 8.14112C8.57363 8.14112 8.52181 8.13565 8.46711 8.12988C8.40592 8.12343 8.34106 8.11659 8.27626 8.11659H8.22716C7.61203 8.11725 7.00342 8.24249 6.43808 8.48474C5.87274 8.72699 5.3624 9.08123 4.93789 9.52605C4.51338 9.97088 4.1835 10.4971 3.96817 11.0728C3.75285 11.6486 3.65654 12.262 3.68508 12.876C3.71405 13.503 3.87342 14.1171 4.15304 14.6792C4.43266 15.2412 4.82639 15.7389 5.30914 16.1405C5.79189 16.5421 6.35308 16.8388 6.95693 17.0117C7.42588 17.146 8.28792 17.152 8.64967 17.1479L12.9974 22.4837L17.4168 17.1006C17.5286 17.1119 17.6408 17.1184 17.7532 17.1202C18.9536 17.1127 20.1034 16.6362 20.9568 15.7927C21.8101 14.9491 22.2994 13.8054 22.3199 12.6061C22.2844 11.4097 21.7862 10.2736 20.9301 9.43646C20.074 8.5993 18.9265 8.12621 17.7287 8.11659C17.5728 8.11252 17.4168 8.12072 17.2622 8.14112C16.9694 7.67764 16.6048 7.26359 16.1819 6.91446C16.0406 6.80017 15.74 6.59553 15.74 6.59553L15.6944 6.57273L16.3858 5.30504C16.5678 4.97135 16.4449 4.55329 16.1112 4.37128C15.7775 4.18926 15.3594 4.31222 15.1774 4.64591L14.4473 5.98452C13.9601 5.83322 13.4521 5.75782 12.9411 5.76141C12.4598 5.76314 11.9809 5.82915 11.5171 5.95767C11.5171 5.95521 11.5057 5.9582 11.4851 5.96559L10.7653 4.64591ZM15.4841 16.5625C13.6187 15.5738 12.5093 13.6282 12.2565 13.185C12.229 13.1367 12.2116 13.1062 12.2045 13.0968L12.0572 12.8515C11.5546 11.9512 10.8787 11.1591 10.0685 10.5208C9.54309 10.1264 8.9086 9.90361 8.25171 9.88297C7.49637 9.88297 6.77197 10.1828 6.23786 10.7165C5.70376 11.2502 5.4037 11.974 5.4037 12.7288C5.4037 13.4836 5.70376 14.2074 6.23786 14.7411C6.77197 15.2748 7.49637 15.5746 8.25171 15.5746C9.11102 15.5746 10.0194 15.084 10.9279 14.1272L11.4925 13.5384L12.4992 14.9122L12.1309 15.2802C11.7165 15.7481 10.9112 16.2923 10.5234 16.542L13.0027 19.5849L15.4841 16.5625ZM12.9657 7.25662C12.1074 7.25576 11.5585 7.46942 10.8921 8.00984C10.6711 8.20609 10.5397 8.33737 10.3679 8.50908C11.5148 9.02806 12.1812 9.94732 12.7603 10.746C12.8382 10.8535 12.9145 10.9587 12.9902 11.0606C13.0422 10.9879 13.0946 10.9136 13.1479 10.8382C13.7239 10.0226 14.3948 9.0726 15.5634 8.53365C15.4006 8.32183 15.2512 8.17259 15.0392 8.00984C14.3708 7.47309 13.8232 7.25991 12.9657 7.25662ZM16.4766 15.2312C16.8516 15.4148 17.262 15.5152 17.6796 15.5256C18.0536 15.5272 18.4243 15.4552 18.7704 15.3136C19.1166 15.1721 19.4314 14.9638 19.697 14.7007C19.9626 14.4376 20.1738 14.1248 20.3184 13.7801C20.463 13.4355 20.5383 13.0657 20.5399 12.692C20.5415 12.3183 20.4694 11.9479 20.3278 11.602C20.1861 11.2561 19.9777 10.9415 19.7144 10.6761C19.4511 10.4107 19.138 10.1997 18.7931 10.0552C18.4482 9.91072 18.0782 9.83551 17.7041 9.8339C15.9364 9.80937 14.5124 11.7475 13.9477 12.6552C14.242 13.1343 14.5789 13.5859 14.9543 14.0045C15.3906 14.4944 15.905 14.9089 16.4766 15.2312Z" fill="white"/>
  </g>
</svg>
