<svg width="22" height="21" viewBox="0 0 22 21" fill="none" xmlns="http://www.w3.org/2000/svg">
<path d="M11 18.625C13.8906 18.625 16.5469 17.1016 18.0312 14.5625C19.4766 12.0625 19.4766 8.97656 18.0312 6.4375C16.5469 3.9375 13.8906 2.375 11 2.375C8.07031 2.375 5.41406 3.9375 3.92969 6.4375C2.48438 8.97656 2.48438 12.0625 3.92969 14.5625C5.41406 17.1016 8.07031 18.625 11 18.625ZM11 0.5C14.5547 0.5 17.8359 2.41406 19.6328 5.5C21.4297 8.625 21.4297 12.4141 19.6328 15.5C17.8359 18.625 14.5547 20.5 11 20.5C7.40625 20.5 4.125 18.625 2.32812 15.5C0.53125 12.4141 0.53125 8.625 2.32812 5.5C4.125 2.41406 7.40625 0.5 11 0.5ZM6.27344 9.91406C5.88281 9.5625 5.88281 8.97656 6.27344 8.625C6.625 8.23438 7.21094 8.23438 7.60156 8.625L11 12.0234L14.3984 8.625C14.75 8.23438 15.3359 8.23438 15.7266 8.625C16.0781 8.97656 16.0781 9.5625 15.7266 9.91406L11.625 13.9766C11.2734 14.3672 10.6875 14.3672 10.3359 13.9766L6.27344 9.91406Z" fill="#18181B"/>
</svg>
